# xmcd
#
# Track frame offsets: 
#        150
#        27346
#        51210
#        75532
#        97577
#        125562
#        148685
#        162187
#        189903
#        212879
#
# Disc length: 3164 seconds
#
# Revision: 0
# Processed by: cddbd v1.5.2PL0 Copyright (c) Steve Scherf et al.
# Submitted via: ExactAudioCopyFreeDBPlugin 1.0
#
DISCID=7e0c5a0a
DTITLE=Tim Maia - Sorriso de Criança
DYEAR=1997
DGENRE=Soul
TTITLE0=Pense Em Mim (Não Me Trate Assim)
TTITLE1=Sozinho
TTITLE2=Acenda O Farol
TTITLE3=Pra Que Vou Recordar (O Que Chorei)
TTITLE4=África Mãe (Poema Musicado)
TTITLE5=Dizer Que Te Amo (É Muito Pouco)
TTITLE6=Crazy Feelings
TTITLE7=Sorriso De Criança
TTITLE8=The Queen
TTITLE9=O Pescador
EXTD=
EXTT0=
EXTT1=
EXTT2=
EXTT3=
EXTT4=
EXTT5=
EXTT6=
EXTT7=
EXTT8=
EXTT9=
PLAYORDER=
